<svg version="1.1" xmlns="http://www.w3.org/2000/svg" xmlns:xlink="http://www.w3.org/1999/xlink" width="692" height="636"><defs/><g><text fill="#eeeeee" stroke="none" font-family="Arial" font-size="24px" font-style="normal" font-weight="normal" text-decoration="none" x="0" y="0"> </text><text fill="#eeeeee" stroke="none" font-family="Arial" font-size="24px" font-style="normal" font-weight="normal" text-decoration="none" x="0" y="30"> </text><text fill="#eeeeee" stroke="none" font-family="Arial" font-size="24px" font-style="normal" font-weight="normal" text-decoration="none" x="0" y="60"> </text><text fill="#eeeeee" stroke="none" font-family="Arial" font-size="24px" font-style="normal" font-weight="normal" text-decoration="none" x="0" y="90"> </text><text fill="#eeeeee" stroke="none" font-family="Arial" font-size="24px" font-style="normal" font-weight="normal" text-decoration="none" x="0" y="120"> </text><text fill="#eeeeee" stroke="none" font-family="Arial" font-size="24px" font-style="normal" font-weight="normal" text-decoration="none" x="0" y="150"> </text><text fill="#eeeeee" stroke="none" font-family="Arial" font-size="24px" font-style="normal" font-weight="normal" text-decoration="none" x="0" y="180"> </text><text fill="#eeeeee" stroke="none" font-family="Arial" font-size="24px" font-style="normal" font-weight="normal" text-decoration="none" x="0" y="210"> </text><text fill="#eeeeee" stroke="none" font-family="Arial" font-size="24px" font-style="normal" font-weight="normal" text-decoration="none" x="0" y="240"> </text><text fill="#eeeeee" stroke="none" font-family="Arial" font-size="24px" font-style="normal" font-weight="normal" text-decoration="none" x="0" y="270"> </text><text fill="#eeeeee" stroke="none" font-family="Arial" font-size="24px" font-style="normal" font-weight="normal" text-decoration="none" x="0" y="300"> </text><text fill="#eeeeee" stroke="none" font-family="Arial" font-size="24px" font-style="normal" font-weight="normal" text-decoration="none" x="0" y="330"> </text><text fill="#eeeeee" stroke="none" font-family="Arial" font-size="24px" font-style="normal" font-weight="normal" text-decoration="none" x="0" y="360"> </text><text fill="#eeeeee" stroke="none" font-family="Arial" font-size="24px" font-style="normal" font-weight="normal" text-decoration="none" x="0" y="390"> </text><text fill="#eeeeee" stroke="none" font-family="Arial" font-size="24px" font-style="normal" font-weight="normal" text-decoration="none" x="0" y="420"> </text><text fill="#eeeeee" stroke="none" font-family="Arial" font-size="24px" font-style="normal" font-weight="normal" text-decoration="none" x="0" y="450"> </text><text fill="#eeeeee" stroke="none" font-family="Arial" font-size="24px" font-style="normal" font-weight="normal" text-decoration="none" x="0" y="480"> </text><text fill="#eeeeee" stroke="none" font-family="Arial" font-size="24px" font-style="normal" font-weight="normal" text-decoration="none" x="0" y="510"> </text><text fill="#eeeeee" stroke="none" font-family="Arial" font-size="24px" font-style="normal" font-weight="normal" text-decoration="none" x="0" y="540"> </text><text fill="#eeeeee" stroke="none" font-family="Arial" font-size="24px" font-style="normal" font-weight="normal" text-decoration="none" x="0" y="570"> </text><text fill="#eeeeee" stroke="none" font-family="Arial" font-size="24px" font-style="normal" font-weight="normal" text-decoration="none" x="0" y="600"> </text><text fill="#eeeeee" stroke="none" font-family="Arial" font-size="24px" font-style="normal" font-weight="normal" text-decoration="none" x="0" y="630"> </text><text fill="#eeeeee" stroke="none" font-family="Arial" font-size="24px" font-style="normal" font-weight="normal" text-decoration="none" x="200" y="0"> </text><text fill="#eeeeee" stroke="none" font-family="Arial" font-size="24px" font-style="normal" font-weight="normal" text-decoration="none" x="200" y="30"> </text><text fill="#eeeeee" stroke="none" font-family="Arial" font-size="24px" font-style="normal" font-weight="normal" text-decoration="none" x="200" y="60"> </text><text fill="#eeeeee" stroke="none" font-family="Arial" font-size="24px" font-style="normal" font-weight="normal" text-decoration="none" x="200" y="90"> </text><text fill="#eeeeee" stroke="none" font-family="Arial" font-size="24px" font-style="normal" font-weight="normal" text-decoration="none" x="200" y="120"> </text><text fill="#eeeeee" stroke="none" font-family="Arial" font-size="24px" font-style="normal" font-weight="normal" text-decoration="none" x="200" y="150"> </text><text fill="#eeeeee" stroke="none" font-family="Arial" font-size="24px" font-style="normal" font-weight="normal" text-decoration="none" x="200" y="180"> </text><text fill="#eeeeee" stroke="none" font-family="Arial" font-size="24px" font-style="normal" font-weight="normal" text-decoration="none" x="200" y="210"> </text><text fill="#eeeeee" stroke="none" font-family="Arial" font-size="24px" font-style="normal" font-weight="normal" text-decoration="none" x="200" y="240"> </text><text fill="#eeeeee" stroke="none" font-family="Arial" font-size="24px" font-style="normal" font-weight="normal" text-decoration="none" x="200" y="270"> </text><text fill="#eeeeee" stroke="none" font-family="Arial" font-size="24px" font-style="normal" font-weight="normal" text-decoration="none" x="200" y="300"> </text><text fill="#eeeeee" stroke="none" font-family="Arial" font-size="24px" font-style="normal" font-weight="normal" text-decoration="none" x="200" y="330"> </text><text fill="#eeeeee" stroke="none" font-family="Arial" font-size="24px" font-style="normal" font-weight="normal" text-decoration="none" x="200" y="360"> </text><text fill="#eeeeee" stroke="none" font-family="Arial" font-size="24px" font-style="normal" font-weight="normal" text-decoration="none" x="200" y="390"> </text><text fill="#eeeeee" stroke="none" font-family="Arial" font-size="24px" font-style="normal" font-weight="normal" text-decoration="none" x="200" y="420"> </text><text fill="#eeeeee" stroke="none" font-family="Arial" font-size="24px" font-style="normal" font-weight="normal" text-decoration="none" x="200" y="450"> </text><text fill="#eeeeee" stroke="none" font-family="Arial" font-size="24px" font-style="normal" font-weight="normal" text-decoration="none" x="200" y="480"> </text><text fill="#eeeeee" stroke="none" font-family="Arial" font-size="24px" font-style="normal" font-weight="normal" text-decoration="none" x="200" y="510"> </text><text fill="#eeeeee" stroke="none" font-family="Arial" font-size="24px" font-style="normal" font-weight="normal" text-decoration="none" x="200" y="540"> </text><text fill="#eeeeee" stroke="none" font-family="Arial" font-size="24px" font-style="normal" font-weight="normal" text-decoration="none" x="200" y="570"> </text><text fill="#eeeeee" stroke="none" font-family="Arial" font-size="24px" font-style="normal" font-weight="normal" text-decoration="none" x="200" y="600"> </text><text fill="#eeeeee" stroke="none" font-family="Arial" font-size="24px" font-style="normal" font-weight="normal" text-decoration="none" x="200" y="630"> </text><text fill="#eeeeee" stroke="none" font-family="Arial" font-size="24px" font-style="normal" font-weight="normal" text-decoration="none" x="400" y="0"> </text><text fill="#eeeeee" stroke="none" font-family="Arial" font-size="24px" font-style="normal" font-weight="normal" text-decoration="none" x="400" y="30"> </text><text fill="#eeeeee" stroke="none" font-family="Arial" font-size="24px" font-style="normal" font-weight="normal" text-decoration="none" x="400" y="60"> </text><text fill="#eeeeee" stroke="none" font-family="Arial" font-size="24px" font-style="normal" font-weight="normal" text-decoration="none" x="400" y="90"> </text><text fill="#eeeeee" stroke="none" font-family="Arial" font-size="24px" font-style="normal" font-weight="normal" text-decoration="none" x="400" y="120"> </text><text fill="#eeeeee" stroke="none" font-family="Arial" font-size="24px" font-style="normal" font-weight="normal" text-decoration="none" x="400" y="150"> </text><text fill="#eeeeee" stroke="none" font-family="Arial" font-size="24px" font-style="normal" font-weight="normal" text-decoration="none" x="400" y="180"> </text><text fill="#eeeeee" stroke="none" font-family="Arial" font-size="24px" font-style="normal" font-weight="normal" text-decoration="none" x="400" y="210"> </text><text fill="#eeeeee" stroke="none" font-family="Arial" font-size="24px" font-style="normal" font-weight="normal" text-decoration="none" x="400" y="240"> </text><text fill="#eeeeee" stroke="none" font-family="Arial" font-size="24px" font-style="normal" font-weight="normal" text-decoration="none" x="400" y="270"> </text><text fill="#eeeeee" stroke="none" font-family="Arial" font-size="24px" font-style="normal" font-weight="normal" text-decoration="none" x="400" y="300"> </text><text fill="#eeeeee" stroke="none" font-family="Arial" font-size="24px" font-style="normal" font-weight="normal" text-decoration="none" x="400" y="330"> </text><text fill="#eeeeee" stroke="none" font-family="Arial" font-size="24px" font-style="normal" font-weight="normal" text-decoration="none" x="400" y="360"> </text><text fill="#eeeeee" stroke="none" font-family="Arial" font-size="24px" font-style="normal" font-weight="normal" text-decoration="none" x="400" y="390"> </text><text fill="#eeeeee" stroke="none" font-family="Arial" font-size="24px" font-style="normal" font-weight="normal" text-decoration="none" x="400" y="420"> </text><text fill="#eeeeee" stroke="none" font-family="Arial" font-size="24px" font-style="normal" font-weight="normal" text-decoration="none" x="400" y="450"> </text><text fill="#eeeeee" stroke="none" font-family="Arial" font-size="24px" font-style="normal" font-weight="normal" text-decoration="none" x="400" y="480"> </text><text fill="#eeeeee" stroke="none" font-family="Arial" font-size="24px" font-style="normal" font-weight="normal" text-decoration="none" x="400" y="510"> </text><text fill="#eeeeee" stroke="none" font-family="Arial" font-size="24px" font-style="normal" font-weight="normal" text-decoration="none" x="400" y="540"> </text><text fill="#eeeeee" stroke="none" font-family="Arial" font-size="24px" font-style="normal" font-weight="normal" text-decoration="none" x="400" y="570"> </text><text fill="#eeeeee" stroke="none" font-family="Arial" font-size="24px" font-style="normal" font-weight="normal" text-decoration="none" x="400" y="600"> </text><text fill="#eeeeee" stroke="none" font-family="Arial" font-size="24px" font-style="normal" font-weight="normal" text-decoration="none" x="400" y="630"> </text><text fill="#eeeeee" stroke="none" font-family="Arial" font-size="24px" font-style="normal" font-weight="normal" text-decoration="none" x="600" y="0"> </text><text fill="#eeeeee" stroke="none" font-family="Arial" font-size="24px" font-style="normal" font-weight="normal" text-decoration="none" x="600" y="30"> </text><text fill="#eeeeee" stroke="none" font-family="Arial" font-size="24px" font-style="normal" font-weight="normal" text-decoration="none" x="600" y="60"> </text><text fill="#eeeeee" stroke="none" font-family="Arial" font-size="24px" font-style="normal" font-weight="normal" text-decoration="none" x="600" y="90"> </text><text fill="#eeeeee" stroke="none" font-family="Arial" font-size="24px" font-style="normal" font-weight="normal" text-decoration="none" x="600" y="120"> </text><text fill="#eeeeee" stroke="none" font-family="Arial" font-size="24px" font-style="normal" font-weight="normal" text-decoration="none" x="600" y="150"> </text><text fill="#eeeeee" stroke="none" font-family="Arial" font-size="24px" font-style="normal" font-weight="normal" text-decoration="none" x="600" y="180"> </text><text fill="#eeeeee" stroke="none" font-family="Arial" font-size="24px" font-style="normal" font-weight="normal" text-decoration="none" x="600" y="210"> </text><text fill="#eeeeee" stroke="none" font-family="Arial" font-size="24px" font-style="normal" font-weight="normal" text-decoration="none" x="600" y="240"> </text><text fill="#eeeeee" stroke="none" font-family="Arial" font-size="24px" font-style="normal" font-weight="normal" text-decoration="none" x="600" y="270"> </text><text fill="#eeeeee" stroke="none" font-family="Arial" font-size="24px" font-style="normal" font-weight="normal" text-decoration="none" x="600" y="300"> </text><text fill="#eeeeee" stroke="none" font-family="Arial" font-size="24px" font-style="normal" font-weight="normal" text-decoration="none" x="600" y="330"> </text><text fill="#eeeeee" stroke="none" font-family="Arial" font-size="24px" font-style="normal" font-weight="normal" text-decoration="none" x="600" y="360"> </text><text fill="#eeeeee" stroke="none" font-family="Arial" font-size="24px" font-style="normal" font-weight="normal" text-decoration="none" x="600" y="390"> </text><text fill="#eeeeee" stroke="none" font-family="Arial" font-size="24px" font-style="normal" font-weight="normal" text-decoration="none" x="600" y="420"> </text><text fill="#eeeeee" stroke="none" font-family="Arial" font-size="24px" font-style="normal" font-weight="normal" text-decoration="none" x="600" y="450"> </text><text fill="#eeeeee" stroke="none" font-family="Arial" font-size="24px" font-style="normal" font-weight="normal" text-decoration="none" x="600" y="480"> </text><text fill="#eeeeee" stroke="none" font-family="Arial" font-size="24px" font-style="normal" font-weight="normal" text-decoration="none" x="600" y="510"> </text><text fill="#eeeeee" stroke="none" font-family="Arial" font-size="24px" font-style="normal" font-weight="normal" text-decoration="none" x="600" y="540"> </text><text fill="#eeeeee" stroke="none" font-family="Arial" font-size="24px" font-style="normal" font-weight="normal" text-decoration="none" x="600" y="570"> </text><text fill="#eeeeee" stroke="none" font-family="Arial" font-size="24px" font-style="normal" font-weight="normal" text-decoration="none" x="600" y="600"> </text><text fill="#eeeeee" stroke="none" font-family="Arial" font-size="24px" font-style="normal" font-weight="normal" text-decoration="none" x="600" y="630"> </text><g transform="translate(-1478,-766) scale(1,1)"><rect fill="#C0C0C0" stroke="none" x="1583" y="783" width="560" height="616" opacity="0.2"/></g><g transform="translate(-1478,-766) scale(1,1)"><rect fill="#ffffff" stroke="none" x="1576" y="776" width="560" height="616"/></g><g transform="translate(-1478,-766) scale(1,1)"><path fill="none" stroke="#000000" d="M 1576 776 L 2136 776 L 2136 1392 L 1576 1392 L 1576 776 Z Z" stroke-miterlimit="10"/></g><g transform="translate(-1478,-766) scale(1,1)"><g><path fill="none" stroke="none"/><text fill="#000000" stroke="none" font-family="Arial" font-size="13px" font-style="normal" font-weight="bold" text-decoration="none" x="1828.175048828125" y="795.5">Seriathon</text></g></g><g transform="translate(-1478,-766) scale(1,1)"><path fill="#ffffff" stroke="none" d="M 1515.6066159446023 1121.6799999999998 C 1515.6066159446023 1116.8861679359998 1519.4924582695478 1113 1524.285888671875 1113 C 1529.0793190742022 1113 1532.9651613991477 1116.8861679359998 1532.9651613991477 1121.6799999999998 C 1532.9651613991477 1126.473832064 1529.0793190742022 1130.36 1524.285888671875 1130.36 C 1519.4924582695478 1130.36 1515.6066159446023 1126.473832064 1515.6066159446023 1121.6799999999998 Z"/></g><g transform="translate(-1478,-766) scale(1,1)"><path fill="none" stroke="#000000" d="M 1515.6066159446023 1121.6799999999998 C 1515.6066159446023 1116.8861679359998 1519.4924582695478 1113 1524.285888671875 1113 C 1529.0793190742022 1113 1532.9651613991477 1116.8861679359998 1532.9651613991477 1121.6799999999998 C 1532.9651613991477 1126.473832064 1529.0793190742022 1130.36 1524.285888671875 1130.36 C 1519.4924582695478 1130.36 1515.6066159446023 1126.473832064 1515.6066159446023 1121.6799999999998 Z" stroke-miterlimit="10"/></g><g transform="translate(-1478,-766) scale(1,1)"><path fill="none" stroke="#000000" d="M 1524.285888671875 1130.36 L 1524.285888671875 1147.64" stroke-miterlimit="10"/></g><g transform="translate(-1478,-766) scale(1,1)"><path fill="none" stroke="#000000" d="M 1515.0960704900567 1136.84 L 1533.4757068536933 1136.84" stroke-miterlimit="10"/></g><g transform="translate(-1478,-766) scale(1,1)"><path fill="none" stroke="#000000" d="M 1524.285888671875 1147.64 L 1511.5222523082386 1165" stroke-miterlimit="10"/></g><g transform="translate(-1478,-766) scale(1,1)"><path fill="none" stroke="#000000" d="M 1524.285888671875 1147.64 L 1537.0495250355114 1165" stroke-miterlimit="10"/></g><g transform="translate(-1478,-766) scale(1,1)"><g><path fill="none" stroke="none"/><text fill="#000000" stroke="none" font-family="Arial" font-size="13px" font-style="normal" font-weight="bold" text-decoration="none" x="1495.38818359375" y="1185.5">Utilisateur</text></g></g><g transform="translate(-1478,-766) scale(1,1)"><path fill="#C0C0C0" stroke="none" d="M 1722 832 C 1722 822.6111584 1750.6537728 815 1786 815 C 1821.3462272 815 1850 822.6111584 1850 832 C 1850 841.3888416 1821.3462272 849 1786 849 C 1750.6537728 849 1722 841.3888416 1722 832 Z" opacity="0.2"/></g><g transform="translate(-1478,-766) scale(1,1)"><path fill="#ffffff" stroke="none" d="M 1715 825 C 1715 815.6111584 1743.6537728 808 1779 808 C 1814.3462272 808 1843 815.6111584 1843 825 C 1843 834.3888416 1814.3462272 842 1779 842 C 1743.6537728 842 1715 834.3888416 1715 825 Z"/></g><g transform="translate(-1478,-766) scale(1,1)"><path fill="none" stroke="#000000" d="M 1715 825 C 1715 815.6111584 1743.6537728 808 1779 808 C 1814.3462272 808 1843 815.6111584 1843 825 C 1843 834.3888416 1814.3462272 842 1779 842 C 1743.6537728 842 1715 834.3888416 1715 825 Z" stroke-miterlimit="10"/></g><g transform="translate(-1478,-766) scale(1,1)"><g><path fill="none" stroke="none"/><text fill="#000000" stroke="none" font-family="Arial" font-size="13px" font-style="normal" font-weight="bold" text-decoration="none" x="1740.6982421875" y="832">Se connecter</text></g></g><g transform="translate(-1478,-766) scale(1,1)"><path fill="#ffffff" stroke="none" d="M 1520 824 L 1701 824 L 1711 834 L 1711 873 L 1520 873 L 1520 824"/></g><g transform="translate(-1478,-766) scale(1,1)"><path fill="none" stroke="#000000" d="M 1520 824 L 1701 824 L 1711 834 L 1711 873 L 1520 873 L 1520 824 L 1520 824" stroke-miterlimit="10"/></g><g transform="translate(-1478,-766) scale(1,1)"><path fill="none" stroke="#000000" d="M 1701 824 L 1701 834 L 1711 834 L 1701 824" stroke-miterlimit="10"/></g><g transform="translate(-1478,-766) scale(1,1)"><g><path fill="none" stroke="none"/><text fill="#000000" stroke="none" font-family="Arial" font-size="13px" font-style="normal" font-weight="normal" text-decoration="none" x="1525" y="842">Toutes les autres actions</text><text fill="#000000" stroke="none" font-family="Arial" font-size="13px" font-style="normal" font-weight="normal" text-decoration="none" x="1525" y="855">nécessite à l'utilisateur de se</text><text fill="#000000" stroke="none" font-family="Arial" font-size="13px" font-style="normal" font-weight="normal" text-decoration="none" x="1525" y="868">connecter au préalable</text></g></g><g transform="translate(-1478,-766) scale(1,1)"><path fill="#C0C0C0" stroke="none" d="M 1699 936 C 1699 926.6111584 1737.9512224 919 1786 919 C 1834.0487776 919 1873 926.6111584 1873 936 C 1873 945.3888416 1834.0487776 953 1786 953 C 1737.9512224 953 1699 945.3888416 1699 936 Z" opacity="0.2"/></g><g transform="translate(-1478,-766) scale(1,1)"><path fill="#ffffff" stroke="none" d="M 1692 929 C 1692 919.6111584 1730.9512224 912 1779 912 C 1827.0487776 912 1866 919.6111584 1866 929 C 1866 938.3888416 1827.0487776 946 1779 946 C 1730.9512224 946 1692 938.3888416 1692 929 Z"/></g><g transform="translate(-1478,-766) scale(1,1)"><path fill="none" stroke="#000000" d="M 1692 929 C 1692 919.6111584 1730.9512224 912 1779 912 C 1827.0487776 912 1866 919.6111584 1866 929 C 1866 938.3888416 1827.0487776 946 1779 946 C 1730.9512224 946 1692 938.3888416 1692 929 Z" stroke-miterlimit="10"/></g><g transform="translate(-1478,-766) scale(1,1)"><g><path fill="none" stroke="none"/><text fill="#000000" stroke="none" font-family="Arial" font-size="13px" font-style="normal" font-weight="bold" text-decoration="none" x="1725.88916015625" y="936">créer un marathon</text></g></g><g transform="translate(-1478,-766) scale(1,1)"><path fill="#C0C0C0" stroke="none" d="M 1670 1156 C 1670 1144.4020192 1722.1588208 1135 1786.5 1135 C 1850.8411792 1135 1903 1144.4020192 1903 1156 C 1903 1167.5979808 1850.8411792 1177 1786.5 1177 C 1722.1588208 1177 1670 1167.5979808 1670 1156 Z" opacity="0.2"/></g><g transform="translate(-1478,-766) scale(1,1)"><path fill="#ffffff" stroke="none" d="M 1663 1149 C 1663 1137.4020192 1715.1588208 1128 1779.5 1128 C 1843.8411792 1128 1896 1137.4020192 1896 1149 C 1896 1160.5979808 1843.8411792 1170 1779.5 1170 C 1715.1588208 1170 1663 1160.5979808 1663 1149 Z"/></g><g transform="translate(-1478,-766) scale(1,1)"><path fill="none" stroke="#000000" d="M 1663 1149 C 1663 1137.4020192 1715.1588208 1128 1779.5 1128 C 1843.8411792 1128 1896 1137.4020192 1896 1149 C 1896 1160.5979808 1843.8411792 1170 1779.5 1170 C 1715.1588208 1170 1663 1160.5979808 1663 1149 Z" stroke-miterlimit="10"/></g><g transform="translate(-1478,-766) scale(1,1)"><g><path fill="none" stroke="none"/><text fill="#000000" stroke="none" font-family="Arial" font-size="13px" font-style="normal" font-weight="bold" text-decoration="none" x="1708.688720703125" y="1156">consulter les statistiques</text></g></g><g transform="translate(-1478,-766) scale(1,1)"><path fill="#C0C0C0" stroke="none" d="M 1682 1256 C 1682 1246.6111584 1728.5623808 1239 1786 1239 C 1843.4376192 1239 1890 1246.6111584 1890 1256 C 1890 1265.3888416 1843.4376192 1273 1786 1273 C 1728.5623808 1273 1682 1265.3888416 1682 1256 Z" opacity="0.2"/></g><g transform="translate(-1478,-766) scale(1,1)"><path fill="#ffffff" stroke="none" d="M 1675 1249 C 1675 1239.6111584 1721.5623808 1232 1779 1232 C 1836.4376192 1232 1883 1239.6111584 1883 1249 C 1883 1258.3888416 1836.4376192 1266 1779 1266 C 1721.5623808 1266 1675 1258.3888416 1675 1249 Z"/></g><g transform="translate(-1478,-766) scale(1,1)"><path fill="none" stroke="#000000" d="M 1675 1249 C 1675 1239.6111584 1721.5623808 1232 1779 1232 C 1836.4376192 1232 1883 1239.6111584 1883 1249 C 1883 1258.3888416 1836.4376192 1266 1779 1266 C 1721.5623808 1266 1675 1258.3888416 1675 1249 Z" stroke-miterlimit="10"/></g><g transform="translate(-1478,-766) scale(1,1)"><g><path fill="none" stroke="none"/><text fill="#000000" stroke="none" font-family="Arial" font-size="13px" font-style="normal" font-weight="bold" text-decoration="none" x="1715.425048828125" y="1256">ajouter film comme vu</text></g></g><g transform="translate(-1478,-766) scale(1,1)"><path fill="#C0C0C0" stroke="none" d="M 1669 1312 C 1669 1302.6111584 1721.606536 1295 1786.5 1295 C 1851.393464 1295 1904 1302.6111584 1904 1312 C 1904 1321.3888416 1851.393464 1329 1786.5 1329 C 1721.606536 1329 1669 1321.3888416 1669 1312 Z" opacity="0.2"/></g><g transform="translate(-1478,-766) scale(1,1)"><path fill="#ffffff" stroke="none" d="M 1662 1305 C 1662 1295.6111584 1714.606536 1288 1779.5 1288 C 1844.393464 1288 1897 1295.6111584 1897 1305 C 1897 1314.3888416 1844.393464 1322 1779.5 1322 C 1714.606536 1322 1662 1314.3888416 1662 1305 Z"/></g><g transform="translate(-1478,-766) scale(1,1)"><path fill="none" stroke="#000000" d="M 1662 1305 C 1662 1295.6111584 1714.606536 1288 1779.5 1288 C 1844.393464 1288 1897 1295.6111584 1897 1305 C 1897 1314.3888416 1844.393464 1322 1779.5 1322 C 1714.606536 1322 1662 1314.3888416 1662 1305 Z" stroke-miterlimit="10"/></g><g transform="translate(-1478,-766) scale(1,1)"><g><path fill="none" stroke="none"/><text fill="#000000" stroke="none" font-family="Arial" font-size="13px" font-style="normal" font-weight="bold" text-decoration="none" x="1715.921875" y="1312">supprimer film déjà vu</text></g></g><g transform="translate(-1478,-766) scale(1,1)"><path fill="#C0C0C0" stroke="none" d="M 1677 1064 C 1677 1054.6111584 1726.0248144 1047 1786.5 1047 C 1846.9751856 1047 1896 1054.6111584 1896 1064 C 1896 1073.3888416 1846.9751856 1081 1786.5 1081 C 1726.0248144 1081 1677 1073.3888416 1677 1064 Z" opacity="0.2"/></g><g transform="translate(-1478,-766) scale(1,1)"><path fill="#ffffff" stroke="none" d="M 1670 1057 C 1670 1047.6111584 1719.0248144 1040 1779.5 1040 C 1839.9751856 1040 1889 1047.6111584 1889 1057 C 1889 1066.3888416 1839.9751856 1074 1779.5 1074 C 1719.0248144 1074 1670 1066.3888416 1670 1057 Z"/></g><g transform="translate(-1478,-766) scale(1,1)"><path fill="none" stroke="#000000" d="M 1670 1057 C 1670 1047.6111584 1719.0248144 1040 1779.5 1040 C 1839.9751856 1040 1889 1047.6111584 1889 1057 C 1889 1066.3888416 1839.9751856 1074 1779.5 1074 C 1719.0248144 1074 1670 1066.3888416 1670 1057 Z" stroke-miterlimit="10"/></g><g transform="translate(-1478,-766) scale(1,1)"><g><path fill="none" stroke="none"/><text fill="#000000" stroke="none" font-family="Arial" font-size="13px" font-style="normal" font-weight="bold" text-decoration="none" x="1712.300537109375" y="1064">supprimer un marathon</text></g></g><g transform="translate(-1478,-766) scale(1,1)"><path fill="#C0C0C0" stroke="none" d="M 1951 832 C 1951 822.6111584 1986.5933584 815 2030.5 815 C 2074.4066416 815 2110 822.6111584 2110 832 C 2110 841.3888416 2074.4066416 849 2030.5 849 C 1986.5933584 849 1951 841.3888416 1951 832 Z" opacity="0.2"/></g><g transform="translate(-1478,-766) scale(1,1)"><path fill="#ffffff" stroke="none" d="M 1944 825 C 1944 815.6111584 1979.5933584 808 2023.5 808 C 2067.4066416 808 2103 815.6111584 2103 825 C 2103 834.3888416 2067.4066416 842 2023.5 842 C 1979.5933584 842 1944 834.3888416 1944 825 Z"/></g><g transform="translate(-1478,-766) scale(1,1)"><path fill="none" stroke="#000000" d="M 1944 825 C 1944 815.6111584 1979.5933584 808 2023.5 808 C 2067.4066416 808 2103 815.6111584 2103 825 C 2103 834.3888416 2067.4066416 842 2023.5 842 C 1979.5933584 842 1944 834.3888416 1944 825 Z" stroke-miterlimit="10"/></g><g transform="translate(-1478,-766) scale(1,1)"><g><path fill="none" stroke="none"/><text fill="#000000" stroke="none" font-family="Arial" font-size="13px" font-style="normal" font-weight="bold" text-decoration="none" x="1975.089599609375" y="832">Créer un compte</text></g></g><g transform="translate(-1478,-766) scale(1,1)"><path fill="none" stroke="#000000" d="M 1943 825 L 1844 825" stroke-miterlimit="10" stroke-dasharray="3"/></g><g transform="translate(-1478,-766) scale(1,1)"><path fill="none" stroke="#000000" d="M 1854.162674857624 820.790482243984 L 1844 825 L 1854.162674857624 829.209517756016" stroke-miterlimit="10"/></g><g transform="translate(-1478,-766) scale(1,1)"><g><path fill="none" stroke="none"/><text fill="#000000" stroke="none" font-family="Arial" font-size="13px" font-style="normal" font-weight="normal" text-decoration="none" x="1865.5" y="819.5">«extend»</text></g></g><g transform="translate(-1478,-766) scale(1,1)"><path fill="#C0C0C0" stroke="none" d="M 1927 936 C 1927 926.6111584 1970.8760896 919 2025 919 C 2079.1239104 919 2123 926.6111584 2123 936 C 2123 945.3888416 2079.1239104 953 2025 953 C 1970.8760896 953 1927 945.3888416 1927 936 Z" opacity="0.2"/></g><g transform="translate(-1478,-766) scale(1,1)"><path fill="#ffffff" stroke="none" d="M 1920 929 C 1920 919.6111584 1963.8760896 912 2018 912 C 2072.1239104 912 2116 919.6111584 2116 929 C 2116 938.3888416 2072.1239104 946 2018 946 C 1963.8760896 946 1920 938.3888416 1920 929 Z"/></g><g transform="translate(-1478,-766) scale(1,1)"><path fill="none" stroke="#000000" d="M 1920 929 C 1920 919.6111584 1963.8760896 912 2018 912 C 2072.1239104 912 2116 919.6111584 2116 929 C 2116 938.3888416 2072.1239104 946 2018 946 C 1963.8760896 946 1920 938.3888416 1920 929 Z" stroke-miterlimit="10"/></g><g transform="translate(-1478,-766) scale(1,1)"><g><path fill="none" stroke="none"/><text fill="#000000" stroke="none" font-family="Arial" font-size="13px" font-style="normal" font-weight="bold" text-decoration="none" x="1958.38916015625" y="936">consulter les thèmes</text></g></g><g transform="translate(-1478,-766) scale(1,1)"><path fill="none" stroke="#000000" d="M 1867 929 L 1919 929" stroke-miterlimit="10" stroke-dasharray="3"/></g><g transform="translate(-1478,-766) scale(1,1)"><path fill="none" stroke="#000000" d="M 1908.837325142376 933.209517756016 L 1919 929 L 1908.837325142376 924.790482243984" stroke-miterlimit="10"/></g><g transform="translate(-1478,-766) scale(1,1)"><g><path fill="none" stroke="none"/><text fill="#000000" stroke="none" font-family="Arial" font-size="13px" font-style="normal" font-weight="normal" text-decoration="none" x="1861.5" y="923.5">«include»</text></g></g><g transform="translate(-1478,-766) scale(1,1)"><path fill="#C0C0C0" stroke="none" d="M 1684 1000 C 1684 990.6111584 1729.890808 983 1786.5 983 C 1843.109192 983 1889 990.6111584 1889 1000 C 1889 1009.3888416 1843.109192 1017 1786.5 1017 C 1729.890808 1017 1684 1009.3888416 1684 1000 Z" opacity="0.2"/></g><g transform="translate(-1478,-766) scale(1,1)"><path fill="#ffffff" stroke="none" d="M 1677 993 C 1677 983.6111584 1722.890808 976 1779.5 976 C 1836.109192 976 1882 983.6111584 1882 993 C 1882 1002.3888416 1836.109192 1010 1779.5 1010 C 1722.890808 1010 1677 1002.3888416 1677 993 Z"/></g><g transform="translate(-1478,-766) scale(1,1)"><path fill="none" stroke="#000000" d="M 1677 993 C 1677 983.6111584 1722.890808 976 1779.5 976 C 1836.109192 976 1882 983.6111584 1882 993 C 1882 1002.3888416 1836.109192 1010 1779.5 1010 C 1722.890808 1010 1677 1002.3888416 1677 993 Z" stroke-miterlimit="10"/></g><g transform="translate(-1478,-766) scale(1,1)"><g><path fill="none" stroke="none"/><text fill="#000000" stroke="none" font-family="Arial" font-size="13px" font-style="normal" font-weight="bold" text-decoration="none" x="1716.99462890625" y="1000">consulter le marathon</text></g></g><g transform="translate(-1478,-766) scale(1,1)"><path fill="none" stroke="#000000" d="M 1545 1111 L 1664 888 L 1746 843" stroke-miterlimit="10"/></g><g transform="translate(-1478,-766) scale(1,1)"><path fill="none" stroke="#000000" d="M 1562 1151 L 1662 1150" stroke-miterlimit="10"/></g><g transform="translate(-1478,-766) scale(1,1)"><path fill="none" stroke="#000000" d="M 1779 947 L 1779 975" stroke-miterlimit="10" stroke-dasharray="3"/></g><g transform="translate(-1478,-766) scale(1,1)"><path fill="none" stroke="#000000" d="M 1774.7904822439841 964.8373251423759 L 1779 975 L 1783.2095177560159 964.8373251423759" stroke-miterlimit="10"/></g><g transform="translate(-1478,-766) scale(1,1)"><g><path fill="none" stroke="none"/><text fill="#000000" stroke="none" font-family="Arial" font-size="13px" font-style="normal" font-weight="normal" text-decoration="none" x="1781.5" y="966.5">«extend»</text></g></g><g transform="translate(-1478,-766) scale(1,1)"><path fill="none" stroke="#000000" d="M 1779 1039 L 1779 1011" stroke-miterlimit="10" stroke-dasharray="3"/></g><g transform="translate(-1478,-766) scale(1,1)"><path fill="none" stroke="#000000" d="M 1783.2095177560159 1021.1626748576241 L 1779 1011 L 1774.7904822439841 1021.1626748576241" stroke-miterlimit="10"/></g><g transform="translate(-1478,-766) scale(1,1)"><g><path fill="none" stroke="none"/><text fill="#000000" stroke="none" font-family="Arial" font-size="13px" font-style="normal" font-weight="normal" text-decoration="none" x="1721.5" y="1030.5">«include»</text></g></g><g transform="translate(-1478,-766) scale(1,1)"><path fill="#C0C0C0" stroke="none" d="M 1647 1368 C 1647 1358.6111584 1709.4562704 1351 1786.5 1351 C 1863.5437296 1351 1926 1358.6111584 1926 1368 C 1926 1377.3888416 1863.5437296 1385 1786.5 1385 C 1709.4562704 1385 1647 1377.3888416 1647 1368 Z" opacity="0.2"/></g><g transform="translate(-1478,-766) scale(1,1)"><path fill="#ffffff" stroke="none" d="M 1640 1361 C 1640 1351.6111584 1702.4562704 1344 1779.5 1344 C 1856.5437296 1344 1919 1351.6111584 1919 1361 C 1919 1370.3888416 1856.5437296 1378 1779.5 1378 C 1702.4562704 1378 1640 1370.3888416 1640 1361 Z"/></g><g transform="translate(-1478,-766) scale(1,1)"><path fill="none" stroke="#000000" d="M 1640 1361 C 1640 1351.6111584 1702.4562704 1344 1779.5 1344 C 1856.5437296 1344 1919 1351.6111584 1919 1361 C 1919 1370.3888416 1856.5437296 1378 1779.5 1378 C 1702.4562704 1378 1640 1370.3888416 1640 1361 Z" stroke-miterlimit="10"/></g><g transform="translate(-1478,-766) scale(1,1)"><g><path fill="none" stroke="none"/><text fill="#000000" stroke="none" font-family="Arial" font-size="13px" font-style="normal" font-weight="bold" text-decoration="none" x="1693.524169921875" y="1368">consulter la liste des films vus</text></g></g><g transform="translate(-1478,-766) scale(1,1)"><path fill="none" stroke="#000000" d="M 1556 1111 L 1672 968 L 1730 947" stroke-miterlimit="10"/></g><g transform="translate(-1478,-766) scale(1,1)"><path fill="none" stroke="#000000" d="M 1562 1133 L 1641 1096 L 1715 1075" stroke-miterlimit="10"/></g><g transform="translate(-1478,-766) scale(1,1)"><path fill="none" stroke="#000000" d="M 1562 1122 L 1680 1032 L 1733 1011" stroke-miterlimit="10"/></g><g transform="translate(-1478,-766) scale(1,1)"><path fill="none" stroke="#000000" d="M 1562 1185 L 1632 1248 L 1674 1248" stroke-miterlimit="10"/></g><g transform="translate(-1478,-766) scale(1,1)"><path fill="none" stroke="#000000" d="M 1545 1192 L 1600 1296 L 1661 1299" stroke-miterlimit="10"/></g><g transform="translate(-1478,-766) scale(1,1)"><path fill="none" stroke="#000000" d="M 1536 1192 L 1584 1360 L 1639 1360" stroke-miterlimit="10"/></g><g transform="translate(-1478,-766) scale(1,1)"><path fill="#ffffff" stroke="none" d="M 1816 840 L 2149 840 L 2159 850 L 2159 889 L 1816 889 L 1816 840"/></g><g transform="translate(-1478,-766) scale(1,1)"><path fill="none" stroke="#000000" d="M 1816 840 L 2149 840 L 2159 850 L 2159 889 L 1816 889 L 1816 840 L 1816 840" stroke-miterlimit="10"/></g><g transform="translate(-1478,-766) scale(1,1)"><path fill="none" stroke="#000000" d="M 2149 840 L 2149 850 L 2159 850 L 2149 840" stroke-miterlimit="10"/></g><g transform="translate(-1478,-766) scale(1,1)"><g><path fill="none" stroke="none"/><text fill="#000000" stroke="none" font-family="Arial" font-size="13px" font-style="normal" font-weight="normal" text-decoration="none" x="1821" y="858">Se connecter et Créer un compte peuvent générer des</text><text fill="#000000" stroke="none" font-family="Arial" font-size="13px" font-style="normal" font-weight="normal" text-decoration="none" x="1821" y="871">messages d'erreurs, pour informer d'une mauvaise saisie</text><text fill="#000000" stroke="none" font-family="Arial" font-size="13px" font-style="normal" font-weight="normal" text-decoration="none" x="1821" y="884">par l'utilisateur</text></g></g></g></svg>